<?xml version="1.0" encoding="utf-8"?>
<!-- Generator: Adobe Illustrator 18.0.0, SVG Export Plug-In . SVG Version: 6.00 Build 0)  -->
<!DOCTYPE svg PUBLIC "-//W3C//DTD SVG 1.1//EN" "http://www.w3.org/Graphics/SVG/1.1/DTD/svg11.dtd">
<svg version="1.1" id="Layer_1" xmlns="http://www.w3.org/2000/svg" xmlns:xlink="http://www.w3.org/1999/xlink" x="0px" y="0px"
	 viewBox="0 0 206.7 228.8" style="enable-background:new 0 0 206.7 228.8;" xml:space="preserve">
<path style="fill:none;stroke:#FFFFFF;stroke-width:2;stroke-miterlimit:10;" d="M46.3,34c0,0,6.6-19.2,31-20.3c0,0,6-3.6,9-3.8
	V6.6l9-3.3h5.8l1.9-2.7c0,0,7.1-2.2,12.6,4.1l1.9,1.1V1.4c0,0,14.5,0.8,20.5,8.2c6,7.4,6,5.5,6,5.5h3.8l2.7,7.9c0,0,7.4,1.6,9.3,4.7
	c0,0,3,11.2,2.7,15.3c0,0,20.3,8.2,24.4,37c0,0,7.1,2.5,8.5,12.9v14l8.5,13.1c0,0,3.6,2.2,1.9,8.5c-1.6,6.3-6.8,9.3-6.8,9.3
	l-0.8,23.3c0,0,1.4,3,0.3,5.8c-1.1,2.7-1.9,4.1-1.9,4.1l1.1,2.7l-1.9,13.7c0,0-1.1,8.5-0.3,10.7c0.8,2.2,1.1,11.2,1.1,11.2
	s0.3,7.9-6.3,11c-6.6,3-17.3,6.3-17.3,6.3l-4.7,1.9c0,0-69.3-5.5-86.6-37l-3.8-4.1c0,0-3.8,2.7-4.7,2.7s-8.5-1.9-8.5-1.9l-7.1-4.7
	l-4.1-0.3l-7.4,7.1c0,0-11-4.9-13.7-11.2c0,0-13.1-4.7-18.4-18.9c0,0-24.9-24.4-8.2-68.2c0,0-0.8-21.6,8.2-29.9
	C14.2,62.3,20,32.4,46.3,34z"/>
</svg>
