<?xml version="1.0" encoding="utf-8"?>
<!-- Generator: Adobe Illustrator 18.0.0, SVG Export Plug-In . SVG Version: 6.00 Build 0)  -->
<!DOCTYPE svg PUBLIC "-//W3C//DTD SVG 1.1//EN" "http://www.w3.org/Graphics/SVG/1.1/DTD/svg11.dtd">
<svg version="1.1" id="Layer_1" xmlns="http://www.w3.org/2000/svg" xmlns:xlink="http://www.w3.org/1999/xlink" x="0px" y="0px"
	 viewBox="0 0 51.8 51.2" style="enable-background:new 0 0 51.8 51.2;" xml:space="preserve">
<path style="fill:none;stroke:#FFFFFF;stroke-width:0.5;stroke-miterlimit:10;" d="M16,0.8l1.9,7.7L19,12l-1.5,8.8L19,29l1.9,9.6
	h3.8l4.9-3l4.7-0.3l1.4-2.7l1.6-0.5l1.4-2.5l1.6-0.5v-3.3l2.5,1.4l2.2-3.3v3l3.6-2.5v2.5h2.7l-4.9,7.1l-1.1,4.7c0,0-5.5,1.6-6.3,1.6
	S31.6,43,31.6,43s7.9-0.5,7.4,2.5l-8.2,1.6l-6.3,3.8L16,49.8l-1.6,1.1L12.5,49l-9.6,1.9v-2.5l7.7-2.7L2.9,27.9l4.3-2.1l-4.3-1.2
	l-1.4-4.1l2.7-0.8l-2.7-1.4l-1.1-2.2l6.7,0.3V15l-4.8-3.3l1.1-3l4,3.3l1.5-0.3L4.8,5.6l0.3-2.1l4.7,4.4l0.8-7.1l2.7,4.9L16,0.8z"/>
</svg>
